<?xml version="1.0" standalone="no"?>
<!DOCTYPE svg PUBLIC "-//W3C//DTD SVG 20010904//EN"
 "http://www.w3.org/TR/2001/REC-SVG-20010904/DTD/svg10.dtd">
<svg version="1.0" xmlns="http://www.w3.org/2000/svg"
 width="62.000000pt" height="58.000000pt" viewBox="0 0 62.000000 58.000000"
 preserveAspectRatio="xMidYMid meet">

<g transform="translate(0.000000,58.000000) scale(0.100000,-0.100000)"
fill="#000000" stroke="none">
<path d="M255 501 c-178 -45 -240 -261 -108 -382 90 -84 216 -84 306 0 115
106 85 292 -58 364 -39 19 -102 27 -140 18z m70 -117 c27 -11 37 -52 21 -85
-13 -27 -13 -30 4 -39 30 -16 50 -40 50 -61 0 -17 -8 -19 -100 -19 -92 0 -100
2 -100 19 0 21 20 45 50 61 17 9 17 12 4 39 -28 56 14 106 71 85z"/>
<path d="M272 358 c-16 -16 -15 -38 3 -62 21 -28 19 -31 -20 -55 -54 -32 -44
-41 45 -41 44 0 80 4 80 9 0 5 -16 19 -35 31 -19 12 -35 24 -35 27 0 3 8 18
17 34 13 22 15 34 7 47 -14 21 -45 27 -62 10z"/>
</g>
</svg>
