<svg xmlns:xlink="http://www.w3.org/1999/xlink" xmlns="http://www.w3.org/2000/svg" height="24" role="img" width="24" viewBox="0 0 24 24" aria-labelledby="gears-icon" class="Icon-sc-fe2389-0 dkBEGS"><title id="gears-icon" data-chext-position="" data-chext-overflow="" style="position: relative; overflow: visible; outline: rgba(255, 0, 0, 0.3) solid 1px !important; pointer-events: all;">Gears<div class="chrome_extension_overlay" style="position:absolute;top:30%;left:50%;padding: 4px 8px!important;background-color: rgba(216, 216, 216, 1.0)!important;border-radius: 3px;border: 1px solid #555;box-shadow: 0 0 1px #555;z-index:1;color: #000!important;overflow:hidden;height:9px;font-size:12px!important;font-weight:normal!important;line-height:12px!important;font-family: Times New Roman,serif;text-shadow: 0 -1px 0 #111;text-align: center!important;text-transform: none!important;white-space: nowrap!important;text-indent: 0em;text-decoration: none!important;box-sizing: content-box;">13.3333px</div></title><path d="M12 16.2a4.2 4.2 0 1 1 4.2-4.2 4.2 4.2 0 0 1-4.2 4.2zm0-9.6a5.4 5.4 0 1 0 5.4 5.4A5.4 5.4 0 0 0 12 6.6zM22.75 16l-.33.8a.69.69 0 0 1-.91.37l-.14-.05a3.36 3.36 0 0 0-4.26 4.28v.13a.7.7 0 0 1-.38.91l-.8.33a.69.69 0 0 1-.53 0 .72.72 0 0 1-.39-.4l-.01-.14a3.36 3.36 0 0 0-6 0v.11a.69.69 0 0 1-.9.37l-.8-.33a.69.69 0 0 1-.37-.91l.05-.14a3.36 3.36 0 0 0-4.28-4.26h-.13a.7.7 0 0 1-.91-.38L1.25 16a.71.71 0 0 1 .4-.92l.12-.08a3.37 3.37 0 0 0 1.89-3 3.39 3.39 0 0 0-1.92-3h-.12a.69.69 0 0 1-.37-1l.33-.8a.69.69 0 0 1 .91-.37l.13.06a3.36 3.36 0 0 0 4.27-4.26V2.5a.7.7 0 0 1 .38-.91L8 1.25a.69.69 0 0 1 .53 0 .72.72 0 0 1 .39.4l.08.12a3.38 3.38 0 0 0 3 1.88 3.39 3.39 0 0 0 3-1.91l.05-.12a.69.69 0 0 1 .9-.37l.8.33a.69.69 0 0 1 .37.91l-.06.14a3.36 3.36 0 0 0 4.28 4.26h.13a.7.7 0 0 1 .91.38l.33.8a.71.71 0 0 1-.4.92l-.08.01a3.36 3.36 0 0 0 0 6h.11a.69.69 0 0 1 .41 1zm0-2a2.17 2.17 0 0 1-1.2-2 2.2 2.2 0 0 1 1.28-2 1.9 1.9 0 0 0 1-2.48l-.33-.8a1.9 1.9 0 0 0-2.48-1l.23.55-.25-.51a2.17 2.17 0 0 1-2.22-.51 2.19 2.19 0 0 1-.49-2.3 1.89 1.89 0 0 0-1-2.47l-.8-.33a1.91 1.91 0 0 0-2.5 1.1A2.17 2.17 0 0 1 12 2.45a2.2 2.2 0 0 1-2-1.28 1.9 1.9 0 0 0-2.48-1l-.8.33A1.92 1.92 0 0 0 5.76 3a2.17 2.17 0 0 1-.51 2.22 2.19 2.19 0 0 1-2.3.49 1.89 1.89 0 0 0-2.47 1l-.33.8a1.91 1.91 0 0 0 1.1 2.5A2.17 2.17 0 0 1 2.45 12a2.2 2.2 0 0 1-1.28 2 1.9 1.9 0 0 0-1 2.48l.33.8a1.92 1.92 0 0 0 2.55 1 2.17 2.17 0 0 1 2.22.51 2.19 2.19 0 0 1 .49 2.3 1.89 1.89 0 0 0 1 2.47l.8.33a1.91 1.91 0 0 0 2.5-1.1A2.17 2.17 0 0 1 12 21.55a2.2 2.2 0 0 1 2 1.28 1.9 1.9 0 0 0 2.48 1l.8-.33a1.92 1.92 0 0 0 1-2.55 2.17 2.17 0 0 1 .51-2.22 2.19 2.19 0 0 1 2.3-.49 1.89 1.89 0 0 0 2.47-1l.33-.8a1.91 1.91 0 0 0-1.13-2.5z" fill="#FFFFFF" fill-rule="evenodd"></path><path fill="none" d="M0 0h24v24H0z"></path></svg>