<?xml version="1.0" standalone="no"?>
<!DOCTYPE svg PUBLIC "-//W3C//DTD SVG 20010904//EN"
 "http://www.w3.org/TR/2001/REC-SVG-20010904/DTD/svg10.dtd">
<svg version="1.0" xmlns="http://www.w3.org/2000/svg"
 width="512.000000pt" height="512.000000pt" viewBox="0 0 512.000000 512.000000"
 preserveAspectRatio="xMidYMid meet">

<g transform="translate(0.000000,512.000000) scale(0.100000,-0.100000)"
fill="#000000" stroke="none">
<path d="M958 5110 c-83 -13 -173 -38 -259 -71 -102 -39 -149 -91 -149 -164 0
-20 5 -46 11 -58 6 -12 137 -148 290 -302 l279 -280 -123 -123 -122 -122 -275
276 c-151 151 -287 282 -302 290 -32 17 -91 18 -121 3 -67 -35 -114 -125 -159
-307 -29 -117 -32 -347 -5 -472 74 -342 297 -625 612 -776 188 -90 393 -127
581 -106 l99 12 175 -175 175 -175 -596 -597 -596 -598 -237 -593 c-130 -325
-236 -606 -236 -622 0 -76 74 -150 150 -150 16 0 297 106 622 236 l593 237
598 596 597 596 175 -175 175 -175 -12 -99 c-37 -321 105 -692 350 -916 140
-129 302 -217 490 -267 85 -23 117 -26 262 -27 138 0 179 3 252 22 183 45 272
92 307 159 14 28 14 88 0 116 -6 12 -137 148 -290 302 l-279 280 123 123 122
122 275 -276 c151 -151 287 -282 302 -290 32 -17 91 -18 121 -3 95 49 172 261
183 504 26 544 -349 1027 -884 1139 -103 22 -247 29 -342 17 l-85 -11 -175
175 -175 175 827 827 c742 743 827 832 834 866 15 88 11 93 -379 484 -391 390
-396 394 -484 379 -34 -7 -123 -92 -866 -834 l-827 -827 -175 175 -175 175 11
85 c33 257 -53 566 -220 787 -154 204 -366 344 -620 410 -107 27 -321 39 -423
23z m302 -304 c188 -34 362 -136 479 -281 139 -171 209 -405 181 -602 -26
-182 -25 -209 4 -251 14 -20 414 -425 888 -899 594 -593 872 -864 891 -869 30
-7 91 -2 202 16 319 52 681 -142 829 -445 66 -135 100 -325 82 -450 l-8 -48
-246 246 c-136 135 -260 251 -275 257 -37 13 -83 13 -110 -1 -31 -16 -515
-499 -533 -531 -17 -32 -18 -76 -4 -115 6 -15 121 -139 256 -274 l246 -246
-39 -6 c-153 -26 -368 20 -514 109 -282 171 -440 508 -385 822 24 136 22 172
-13 218 -33 44 -1700 1709 -1745 1743 -35 26 -82 27 -208 5 -397 -69 -797 189
-908 587 -24 85 -36 233 -26 304 l8 48 246 -246 c136 -135 260 -251 275 -257
39 -14 83 -13 115 4 32 18 515 502 531 533 15 30 14 77 -3 116 -8 18 -123 140
-255 272 -231 230 -240 240 -214 246 49 11 176 9 253 -5z m3265 -286 l230
-230 -235 -235 -235 -235 -232 232 -233 233 232 232 c128 128 235 233 238 233
3 0 109 -104 235 -230z m-680 -680 l230 -230 -418 -418 -417 -417 -232 233
-233 232 415 415 c228 228 417 415 420 415 3 0 109 -104 235 -230z m-1730
-1730 l230 -230 -530 -530 -530 -530 -232 232 -233 233 527 527 c291 291 530
528 533 528 3 0 109 -104 235 -230z m-1275 -1275 c96 -96 172 -176 170 -178
-4 -3 -293 -119 -543 -218 l-47 -19 13 33 c7 17 60 150 118 294 57 145 106
263 109 263 3 0 84 -79 180 -175z"/>
</g>
</svg>
